<?xml version="1.0" encoding="UTF-8" standalone="no"?>
<svg
   xmlns:dc="http://purl.org/dc/elements/1.1/"
   xmlns:cc="http://creativecommons.org/ns#"
   xmlns:rdf="http://www.w3.org/1999/02/22-rdf-syntax-ns#"
   xmlns:svg="http://www.w3.org/2000/svg"
   xmlns="http://www.w3.org/2000/svg"
   xmlns:sodipodi="http://sodipodi.sourceforge.net/DTD/sodipodi-0.dtd"
   xmlns:inkscape="http://www.inkscape.org/namespaces/inkscape"
   version="1.1"
   id="svg2"
   xml:space="preserve"
   width="1466.6667"
   height="2133.3333"
   viewBox="0 0 1466.6667 2133.3333"
   sodipodi:docname="17743.eps"><metadata
     id="metadata8"><rdf:RDF><cc:Work
         rdf:about=""><dc:format>image/svg+xml</dc:format><dc:type
           rdf:resource="http://purl.org/dc/dcmitype/StillImage" /></cc:Work></rdf:RDF></metadata><defs
     id="defs6" /><sodipodi:namedview
     pagecolor="#ffffff"
     bordercolor="#666666"
     borderopacity="1"
     objecttolerance="10"
     gridtolerance="10"
     guidetolerance="10"
     inkscape:pageopacity="0"
     inkscape:pageshadow="2"
     inkscape:window-width="640"
     inkscape:window-height="480"
     id="namedview4" /><g
     id="g10"
     inkscape:groupmode="layer"
     inkscape:label="ink_ext_XXXXXX"
     transform="matrix(1.3333333,0,0,-1.3333333,0,2133.3333)"><g
       id="g12"
       transform="scale(0.1)"><path
         d="M 11000,0 H 0 V 16000 H 11000 V 0"
         style="fill:#ffffff;fill-opacity:1;fill-rule:nonzero;stroke:none"
         id="path14" /><path
         d="m 2997.8,2573.2 c 44.01,-15 90,-41.5 90,-93.5 0,-50 -36.5,-81.5 -85,-81.5 -53.5,0 -91,36.5 -91,89.5 0,4 3.49,7 7,7 4.49,0 6.49,-3 6.99,-7 0.51,-4 0.51,-9 1.01,-13 2.99,-21.5 13.49,-39 32,-50.5 12.5,-8.5 28.49,-12 43.5,-12 41,0 71.51,25.5 71.51,67.5 0,45 -43.51,68 -80.51,80 -39.5,13 -81.5,31.5 -81.5,80.5 0,43.5 37.5,75.5 80,75.5 48,0 83,-34.5 83,-82 0,-4 -3.49,-7 -7.5,-7 -4.5,0 -6,3.5 -7,7 -0.99,6.5 -0.5,13 -2.5,19.5 -8.49,32 -31,47.5 -63.5,48 l -2.5,0.5 c -34.51,0.5 -66.01,-26 -66.01,-61.5 0,-42 38.51,-56 72.01,-67"
         style="fill:#000000;fill-opacity:1;fill-rule:nonzero;stroke:none"
         id="path30" /><path
         d="m 3451.29,2409.7 v 293.5 c 0,4 3,7 7,7 3.51,0 7,-3.5 8,-6.5 l 99.01,-270 100,272 c 1.01,3 3.51,4.5 7,4.5 3.5,0 7.01,-3 7.01,-7 v -293.5 c 0,-4 -3.51,-7 -7.01,-7 -4,0 -7,3 -7,7 v 255 l -92.5,-252 c 0,-4 -3.01,-7.5 -7,-7.5 -3,0 -5.5,2 -6.5,5 l -94.01,255.5 v -256 c 0,-4 -3,-7 -7,-7 -4,0 -7,3 -7,7"
         style="fill:#000000;fill-opacity:1;fill-rule:nonzero;stroke:none"
         id="path32" /><path
         d="m 4098.79,2536.2 h 99 l -49.5,150.5 z m -56.01,-127 c 0,3.5 91.01,279 98.51,301.5 1,3 4,4.5 7,4.5 3,0 6.01,-1.5 7,-4.5 7,-22 98.51,-298 98.51,-301.5 0,-3.5 -3.5,-7 -7,-7 -3,0 -6,2 -7.01,5 l -37.5,115 h -108 l -38,-115 c -1.01,-3 -3.51,-5 -6.5,-5 -4.01,0 -7.01,3.5 -7.01,7"
         style="fill:#000000;fill-opacity:1;fill-rule:nonzero;stroke:none"
         id="path34" /><path
         d="m 4617.28,2412.7 v 292.5 c 0,4 2.99,7 7,7 3.99,0 6.99,-3 6.99,-7 v -285.5 h 128.01 c 4,0 7,-3.5 7,-7 0,-4 -3,-7 -7,-7 h -135 c -4.01,0 -7,3 -7,7"
         style="fill:#000000;fill-opacity:1;fill-rule:nonzero;stroke:none"
         id="path36" /><path
         d="m 5129.78,2412.7 v 292.5 c 0,4 2.99,7 7,7 3.99,0 6.99,-3 6.99,-7 v -285.5 h 128.01 c 4,0 7,-3.5 7,-7 0,-4 -3,-7 -7,-7 h -135 c -4.01,0 -7,3 -7,7"
         style="fill:#000000;fill-opacity:1;fill-rule:nonzero;stroke:none"
         id="path38" /><path
         d="m 6104.78,2700.7 c 0,-4 -3,-7 -7.01,-7 h -70 v -282 c 0,-4 -2.99,-7 -7,-7 -4,0 -7,3 -7,7 v 282 h -70 c -4,0 -7,3 -7,7 0,4 3,7 7,7 h 154 c 4.01,0 7.01,-3 7.01,-7"
         style="fill:#000000;fill-opacity:1;fill-rule:nonzero;stroke:none"
         id="path40" /><path
         d="m 6602.76,2424.2 c 40.5,26.5 56,88 56,134 0,45.5 -15.5,107 -56,134 -10,6.5 -21.5,10.5 -33.5,10.5 -12,0 -23.51,-4 -33.51,-10.5 -40.5,-27 -55.99,-88.5 -55.99,-134 0,-46 15.49,-107.5 55.99,-134 10,-7 21.51,-11 33.51,-11 12,0 23.5,4 33.5,11 z m 8,279.5 c 44.5,-29.5 62,-95 62,-145.5 0,-51 -17.5,-116 -62,-146 -12.5,-8 -26.5,-13 -41.5,-13 -15,0 -29.01,5 -41.51,13 -44.5,30 -62,95 -62,146 0,50.5 17.5,116 62,145.5 12.5,8 26.51,13 41.51,13 14.5,0 29,-5 41.5,-13"
         style="fill:#000000;fill-opacity:1;fill-rule:nonzero;stroke:none"
         id="path42" /><path
         d="m 7389.77,2704.7 c 0,-4 -79,-281.5 -85.5,-304 -0.5,-3 -3.51,-5 -7.01,-5 -2.99,0 -5.99,2 -7,5 l -78.5,278.5 -78.51,-278.5 c -1,-3 -3.99,-5 -6.99,-5 -3.01,0 -6.01,2 -7,5 -6.51,22.5 -85.51,300 -85.51,304 0,3.5 3,7 7,7 3,0 6,-2.5 7,-5.5 l 78.51,-278.5 78.49,278.5 c 1.01,3.5 4.01,5 7.01,5 3,0 6,-1.5 7,-5 l 78.5,-278.5 79.01,278.5 c 0.5,3 3.5,5.5 6.5,5.5 4,0 7,-3.5 7,-7"
         style="fill:#000000;fill-opacity:1;fill-rule:nonzero;stroke:none"
         id="path44" /><path
         d="m 7906.25,2403.7 c -2.5,0 -5,1.5 -6,4 l -133.01,267 v -265 c 0,-4 -3,-7 -7,-7 -4,0 -7,3 -7,7 v 295 c 0,3.5 3,7 7,7 2.5,0 5,-1.5 6.51,-4 l 132.5,-267 v 265 c 0,4 3,7 7,7 4,0 7,-3 7,-7 v -295 c 0,-3.5 -3,-7 -7,-7"
         style="fill:#000000;fill-opacity:1;fill-rule:nonzero;stroke:none"
         id="path46" /><path
         d="m 5188.1,13248.5 c 11.43,76.1 77.06,134.4 156.33,134.4 81.56,0 148.68,-61.8 157.17,-141.1 14.7,4.4 30.29,6.9 46.44,6.9 88.56,0 160.35,-71.8 160.35,-160.4 0,-88.5 -71.79,-160.3 -160.35,-160.3 -83.37,0 -271.43,0 -352.76,0 -88.56,0 -160.35,71.8 -160.35,160.3 0,86.2 67.95,156.4 153.17,160.2"
         style="fill:#bee2f7;fill-opacity:1;fill-rule:nonzero;stroke:none"
         id="path48" /><path
         d="m 6732.03,12842.1 c -11.43,76.1 -77.06,134.4 -156.32,134.4 -81.57,0 -148.69,-61.8 -157.17,-141.1 -14.71,4.5 -30.29,6.9 -46.45,6.9 -88.55,0 -160.34,-71.8 -160.34,-160.4 0,-88.5 71.79,-160.3 160.34,-160.3 83.38,0 271.44,0 352.77,0 88.55,0 160.34,71.8 160.34,160.3 0,86.2 -67.94,156.4 -153.17,160.2"
         style="fill:#bee2f7;fill-opacity:1;fill-rule:nonzero;stroke:none"
         id="path50" /><path
         d="m 3506.91,13365.9 c -10.87,72.4 -73.32,127.9 -148.73,127.9 -77.61,0 -141.47,-58.8 -149.55,-134.3 -13.99,4.3 -28.82,6.6 -44.19,6.6 -84.25,0 -152.56,-68.3 -152.56,-152.6 0,-84.3 68.31,-152.6 152.56,-152.6 79.33,0 258.26,0 335.65,0 84.26,0 152.56,68.3 152.56,152.6 0,82 -64.65,148.8 -145.74,152.4"
         style="fill:#bee2f7;fill-opacity:1;fill-rule:nonzero;stroke:none"
         id="path52" /><path
         class="sun"
         d="m 8018.98,13708.2 c 0,-115.7 -93.78,-209.4 -209.46,-209.4 -115.67,0 -209.45,93.7 -209.45,209.4 0,115.7 93.78,209.5 209.45,209.5 115.68,0 209.46,-93.8 209.46,-209.5"
         style="fill:#f0c72f;fill-opacity:1;fill-rule:nonzero;stroke:none"
         id="path54" /><path
         d="m 8757.19,11800.5 -648.7,428.3 c -7.44,4.9 -15.91,7 -24.23,6.7 -8.31,0.3 -16.79,-1.8 -24.22,-6.7 l -648.71,-428.3 c -18.89,-12.4 -24.14,-38.1 -11.67,-57 v 0 c 12.47,-18.9 38.14,-24.1 57.03,-11.7 l 627.57,414.3 627.57,-414.3 c 18.9,-12.4 44.56,-7.2 57.04,11.7 v 0 c 12.47,18.9 7.22,44.6 -11.68,57"
         style="fill:#2a221f;fill-opacity:1;fill-rule:nonzero;stroke:none"
         id="path56" /><path
         d="m 2727.77,11864.7 648.7,428.2 c 7.44,4.9 15.91,7 24.22,6.7 8.32,0.3 16.79,-1.8 24.23,-6.7 l 648.7,-428.2 c 18.9,-12.5 24.15,-38.2 11.68,-57.1 v 0 c -12.48,-18.9 -38.14,-24.1 -57.03,-11.7 l -627.57,414.4 -627.58,-414.4 c -18.89,-12.4 -44.55,-7.2 -57.03,11.7 v 0 c -12.47,18.9 -7.22,44.6 11.68,57.1"
         style="fill:#2a221f;fill-opacity:1;fill-rule:nonzero;stroke:none"
         id="path58" /><path
         d="m 6639.09,11016.9 -465.63,307.4 c -5.33,3.6 -11.42,5.1 -17.39,4.8 -5.96,0.3 -12.05,-1.2 -17.38,-4.8 l -465.63,-307.4 c -13.56,-8.9 -17.33,-27.3 -8.38,-40.9 v 0 c 8.95,-13.6 27.37,-17.3 40.94,-8.4 l 450.45,297.4 450.46,-297.4 c 13.56,-8.9 31.98,-5.2 40.94,8.4 v 0 c 8.95,13.6 5.18,32 -8.38,40.9"
         style="fill:#3d3734;fill-opacity:1;fill-rule:nonzero;stroke:none"
         id="path60" /><path
         d="m 5269.58,10750.6 -365.71,241.4 c -4.19,2.8 -8.97,4 -13.65,3.8 -4.69,0.2 -9.47,-1 -13.66,-3.8 l -365.71,-241.4 c -10.65,-7.1 -13.61,-21.5 -6.58,-32.2 v 0 c 7.03,-10.6 21.5,-13.6 32.15,-6.6 l 353.8,233.6 353.79,-233.6 c 10.65,-7 25.12,-4 32.15,6.6 v 0 c 7.03,10.7 4.07,25.1 -6.58,32.2"
         style="fill:#3d3734;fill-opacity:1;fill-rule:nonzero;stroke:none"
         id="path62" /><path
         d="m 6537.47,11035.7 v -705.9 h -744.56 v 705.9 l 373.59,246.1 370.97,-246.1"
         style="fill:#d7d1b5;fill-opacity:1;fill-rule:nonzero;stroke:none"
         id="path64" /><path
         d="m 8683.63,11015.3 v -705.9 H 7508.42 v 701.8 l 1175.21,4.1"
         style="fill:#f0c72f;fill-opacity:1;fill-rule:nonzero;stroke:none"
         id="path66" /><path
         d="m 8683.63,11738.3 v -490.4 H 7508.42 v 491.7 l 585.36,384 589.85,-385.3"
         style="fill:#f0c72f;fill-opacity:1;fill-rule:nonzero;stroke:none"
         id="path68" /><path
         d="M 4010.27,11819.5 V 10293.6 H 2835.06 v 1534.9 l 583.93,386.4 591.28,-395.4"
         style="fill:#be464a;fill-opacity:1;fill-rule:nonzero;stroke:none"
         id="path70" /><path
         d="m 2851.25,10293.6 h -814.39 v 1442.8 h 813.02 l 1.37,-1442.8"
         style="fill:#be464a;fill-opacity:1;fill-rule:nonzero;stroke:none"
         id="path72" /><path
         d="m 8940.07,11442 c 0.44,0 0.89,-0.1 1.34,-0.1 0.45,0 0.9,0.1 1.34,0.1 h -2.68"
         style="fill:#9ab239;fill-opacity:1;fill-rule:nonzero;stroke:none"
         id="path74" /><path
         d="m 8941.41,11441.9 c -67.23,-7 -155.16,-533.6 -119.46,-674.3 31.22,-123 119.46,-145.8 119.46,-145.8 0,0 88.24,22.8 119.46,145.8 35.7,140.7 -52.23,667.3 -119.46,674.3"
         style="fill:#9ab239;fill-opacity:1;fill-rule:nonzero;stroke:none"
         id="path76" /><path
         d="m 4210.38,11414.2 c 0.44,0 0.89,-0.1 1.33,-0.2 0.45,0.1 0.89,0.2 1.34,0.2 h -2.67"
         style="fill:#9ab239;fill-opacity:1;fill-rule:nonzero;stroke:none"
         id="path78" /><path
         d="m 4211.71,11414 c -66.91,-6.9 -154.42,-531 -118.89,-671.1 31.07,-122.4 118.89,-145.1 118.89,-145.1 0,0 87.82,22.7 118.89,145.1 35.54,140.1 -51.97,664.2 -118.89,671.1"
         style="fill:#9ab239;fill-opacity:1;fill-rule:nonzero;stroke:none"
         id="path80" /><path
         d="m 4539.7,10510.6 c 0,-77.1 -62.51,-139.6 -139.62,-139.6 -77.1,0 -139.61,62.5 -139.61,139.6 0,77.1 62.51,139.6 139.61,139.6 77.11,0 139.62,-62.5 139.62,-139.6"
         style="fill:#9ab239;fill-opacity:1;fill-rule:nonzero;stroke:none"
         id="path82" /><path
         d="m 6646.42,11028.4 h 455.08 l -153.7,506.8 H 5382.59 l -153.71,-506.8 h 451.51 l 481.76,317.2 484.27,-317.2"
         style="fill:#3d3734;fill-opacity:1;fill-rule:nonzero;stroke:none"
         id="path84" /><path
         d="M 5650.74,10580.4 H 5452.6 v 295.8 h 198.14 v -295.8"
         style="fill:#bee2f7;fill-opacity:1;fill-rule:nonzero;stroke:none"
         id="path86" /><path
         d="m 6885.92,10580.4 h -198.13 v 295.8 h 198.13 v -295.8"
         style="fill:#bee2f7;fill-opacity:1;fill-rule:nonzero;stroke:none"
         id="path88" /><path
         d="m 3602.1,11237.9 h 220.37 v 369.4 H 3602.1 v -369.4"
         style="fill:#ffffff;fill-opacity:1;fill-rule:nonzero;stroke:none"
         id="path90" /><path
         d="m 3308.79,11237.9 h 220.37 v 369.4 h -220.37 v -369.4"
         style="fill:#ffffff;fill-opacity:1;fill-rule:nonzero;stroke:none"
         id="path92" /><path
         d="m 3597.44,10673.4 h 220.38 v 369.4 h -220.38 v -369.4"
         style="fill:#ffffff;fill-opacity:1;fill-rule:nonzero;stroke:none"
         id="path94" /><path
         d="m 3304.13,10673.4 h 220.37 v 369.4 h -220.37 v -369.4"
         style="fill:#ffffff;fill-opacity:1;fill-rule:nonzero;stroke:none"
         id="path96" /><path
         d="m 3017.8,11237.9 h 220.37 v 369.4 H 3017.8 v -369.4"
         style="fill:#ffffff;fill-opacity:1;fill-rule:nonzero;stroke:none"
         id="path98" /><path
         d="m 3013.15,10673.4 h 220.37 v 369.4 h -220.37 v -369.4"
         style="fill:#ffffff;fill-opacity:1;fill-rule:nonzero;stroke:none"
         id="path100" /><path
         d="m 4577.75,10321 v 411.6 l 326.66,218.1 329.33,-218.1 V 10321 h -655.99"
         style="fill:#d7d1b5;fill-opacity:1;fill-rule:nonzero;stroke:none"
         id="path102" /><path
         d="m 2612.3,10291 v 594.7 H 2255.29 V 10291 h 357.01"
         style="fill:#ffffff;fill-opacity:1;fill-rule:nonzero;stroke:none"
         id="path104" /><path
         d="m 2173.82,11345.3 h 530.75 v 240.8 h -530.75 v -240.8"
         style="fill:#ffffff;fill-opacity:1;fill-rule:nonzero;stroke:none"
         id="path106" /><path
         d="m 7894.8,11428.2 h -198 v 198 h 198 v -198"
         style="fill:#ffffff;fill-opacity:1;fill-rule:nonzero;stroke:none"
         id="path108" /><path
         d="m 8493.09,11428.2 h -198 v 198 h 198 v -198"
         style="fill:#ffffff;fill-opacity:1;fill-rule:nonzero;stroke:none"
         id="path110" /><path
         d="m 7965.1,10313.4 v 477.2 c 0,0.3 -0.23,0.6 -0.51,0.6 h -266.08 c -0.15,0 -0.27,-0.2 -0.27,-0.4 v -477.4 h 266.86"
         style="fill:#ffffff;fill-opacity:1;fill-rule:nonzero;stroke:none"
         id="path112" /><path
         d="m 8495.24,10625.7 h -345.35 v 258.7 h 345.35 v -258.7"
         style="fill:#ffffff;fill-opacity:1;fill-rule:nonzero;stroke:none"
         id="path114" /><path
         d="m 6295.01,10314.9 v 449.9 h -269.35 v -449.9 h 269.35"
         style="fill:#ffffff;fill-opacity:1;fill-rule:nonzero;stroke:none"
         id="path116" /><path
         d="m 5124.56,10319.4 v 326 h -437.63 v -326 h 437.63"
         style="fill:#ffffff;fill-opacity:1;fill-rule:nonzero;stroke:none"
         id="path118" /><path
         d="m 3304.04,11962.2 c 0,-60.9 49.37,-110.3 110.28,-110.3 60.9,0 110.27,49.4 110.27,110.3 0,60.9 -49.37,110.3 -110.27,110.3 -60.91,0 -110.28,-49.4 -110.28,-110.3"
         style="fill:#ffffff;fill-opacity:1;fill-rule:nonzero;stroke:none"
         id="path120" /><path
         d="m 6270.61,11035.7 c 0,-60.9 -49.37,-110.3 -110.27,-110.3 -60.91,0 -110.28,49.4 -110.28,110.3 0,60.9 49.37,110.3 110.28,110.3 60.9,0 110.27,-49.4 110.27,-110.3"
         style="fill:#ffffff;fill-opacity:1;fill-rule:nonzero;stroke:none"
         id="path122" /><path
         d="m 8194.54,11890.5 c 0,-60.9 -49.37,-110.2 -110.28,-110.2 -60.9,0 -110.27,49.3 -110.27,110.2 0,60.9 49.37,110.3 110.27,110.3 60.91,0 110.28,-49.4 110.28,-110.3"
         style="fill:#ffffff;fill-opacity:1;fill-rule:nonzero;stroke:none"
         id="path124" /><path
         d="m 5285.04,13389.8 c -69.27,0 -129.25,-51.6 -139.52,-120 l -2.08,-13.8 -13.98,-0.6 c -76.78,-3.4 -136.92,-66.3 -136.92,-143.2 0,-79.1 64.31,-143.4 143.35,-143.4 h 352.76 c 79.05,0 143.35,64.3 143.35,143.4 0,79 -64.3,143.3 -143.35,143.3 -14.09,0 -28.07,-2 -41.52,-6.1 l -19.63,-5.9 -2.19,20.4 c -7.68,71.7 -67.98,125.9 -140.27,125.9 z m 203.61,-455 h -352.76 c -97.79,0 -177.34,79.6 -177.34,177.4 0,90.6 67.45,165.4 155.91,176 18.14,78.2 89.2,135.6 170.58,135.6 83.2,0 153.6,-57.8 170.99,-137.3 10.73,2 21.64,3 32.62,3 97.79,0 177.34,-79.5 177.34,-177.3 0,-97.8 -79.55,-177.4 -177.34,-177.4"
         style="fill:#000000;fill-opacity:1;fill-rule:nonzero;stroke:none"
         id="path126" /><path
         d="m 6310.65,12873 c -79.04,0 -143.35,-64.3 -143.35,-143.3 0,-79.1 64.31,-143.4 143.35,-143.4 h 352.76 c 79.05,0 143.36,64.3 143.36,143.4 0,76.9 -60.15,139.8 -136.93,143.2 l -13.98,0.6 -2.07,13.8 c -10.28,68.4 -70.26,119.9 -139.52,119.9 -72.29,0 -132.6,-54.1 -140.28,-125.9 l -2.18,-20.4 -19.63,6 c -13.46,4 -27.44,6.1 -41.53,6.1 z m 352.76,-320.7 h -352.76 c -97.78,0 -177.34,79.6 -177.34,177.4 0,97.7 79.56,177.3 177.34,177.3 10.98,0 21.89,-1 32.63,-3 17.38,79.4 87.79,137.2 170.99,137.2 81.38,0 152.43,-57.3 170.58,-135.5 88.45,-10.6 155.91,-85.4 155.91,-176 0,-97.8 -79.56,-177.4 -177.35,-177.4"
         style="fill:#000000;fill-opacity:1;fill-rule:nonzero;stroke:none"
         id="path128" /><path
         d="m 3115.2,13375.4 c -74.75,0 -135.56,-60.8 -135.56,-135.5 0,-74.8 60.81,-135.6 135.56,-135.6 h 335.65 c 74.75,0 135.56,60.8 135.56,135.6 0,72.7 -56.88,132.2 -129.48,135.4 l -13.98,0.6 -2.08,13.8 c -9.72,64.7 -66.44,113.4 -131.93,113.4 -68.36,0 -125.39,-51.1 -132.65,-119 l -2.18,-20.4 -19.63,5.9 c -12.73,3.9 -25.95,5.8 -39.28,5.8 z m 335.65,-305.1 H 3115.2 c -93.49,0 -169.55,76.1 -169.55,169.6 0,93.5 76.06,169.5 169.55,169.5 10.23,0 20.4,-0.9 30.42,-2.7 16.9,75.6 84.03,130.4 163.32,130.4 77.61,0 145.41,-54.6 162.97,-129 84.29,-10.4 148.49,-81.8 148.49,-168.2 0,-93.5 -76.06,-169.6 -169.55,-169.6"
         style="fill:#000000;fill-opacity:1;fill-rule:nonzero;stroke:none"
         id="path130" /><path
         d="m 3116.79,12869.3 c -9.39,0 -16.99,7.6 -16.99,16.9 v 78 c 0,9.4 7.6,17 16.99,17 9.39,0 17,-7.6 17,-17 v -78 c 0,-9.3 -7.61,-16.9 -17,-16.9"
         style="fill:#000000;fill-opacity:1;fill-rule:nonzero;stroke:none"
         id="path132" /><path
         d="m 3116.79,12598.6 c -9.39,0 -16.99,7.6 -16.99,17 v 166.7 c 0,9.4 7.6,17 16.99,17 9.39,0 17,-7.6 17,-17 v -166.7 c 0,-9.4 -7.61,-17 -17,-17"
         style="fill:#000000;fill-opacity:1;fill-rule:nonzero;stroke:none"
         id="path134" /><path
         d="m 3245.3,12598.6 c -9.39,0 -17,7.6 -17,17 v 77.9 c 0,9.4 7.61,17 17,17 9.39,0 16.99,-7.6 16.99,-17 v -77.9 c 0,-9.4 -7.6,-17 -16.99,-17"
         style="fill:#000000;fill-opacity:1;fill-rule:nonzero;stroke:none"
         id="path136" /><path
         d="m 3245.3,12780.4 c -9.39,0 -17,7.6 -17,17 v 166.8 c 0,9.4 7.61,17 17,17 9.39,0 16.99,-7.6 16.99,-17 v -166.8 c 0,-9.4 -7.6,-17 -16.99,-17"
         style="fill:#000000;fill-opacity:1;fill-rule:nonzero;stroke:none"
         id="path138" /><path
         d="m 3375.17,12869.3 c -9.38,0 -16.99,7.6 -16.99,16.9 v 78 c 0,9.4 7.61,17 16.99,17 9.39,0 17,-7.6 17,-17 v -78 c 0,-9.3 -7.61,-16.9 -17,-16.9"
         style="fill:#000000;fill-opacity:1;fill-rule:nonzero;stroke:none"
         id="path140" /><path
         d="m 3375.17,12598.6 c -9.38,0 -16.99,7.6 -16.99,17 v 166.7 c 0,9.4 7.61,17 16.99,17 9.39,0 17,-7.6 17,-17 v -166.7 c 0,-9.4 -7.61,-17 -17,-17"
         style="fill:#000000;fill-opacity:1;fill-rule:nonzero;stroke:none"
         id="path142" /><path
         d="m 3503.68,12598.6 c -9.39,0 -17,7.6 -17,17 v 77.9 c 0,9.4 7.61,17 17,17 9.39,0 17,-7.6 17,-17 v -77.9 c 0,-9.4 -7.61,-17 -17,-17"
         style="fill:#000000;fill-opacity:1;fill-rule:nonzero;stroke:none"
         id="path144" /><path
         d="m 3503.68,12780.4 c -9.39,0 -17,7.6 -17,17 v 166.8 c 0,9.4 7.61,17 17,17 9.39,0 17,-7.6 17,-17 v -166.8 c 0,-9.4 -7.61,-17 -17,-17"
         style="fill:#000000;fill-opacity:1;fill-rule:nonzero;stroke:none"
         id="path146" /><path
         d="m 7995.56,13751.1 c -1.73,-113.2 -92.1,-203.6 -205.29,-205.3 -113.2,-1.7 -203.6,94.7 -205.29,205.3 -1.73,113.2 94.7,203.6 205.29,205.3 113.2,1.7 203.6,-94.7 205.29,-205.3 0.23,-15.6 24.51,-15.7 24.28,0 -1.61,105.2 -71.88,195.8 -173.78,222.7 -102.04,27 -209.76,-24.8 -259.14,-116.1 -50.3,-93 -25.17,-210.4 52.55,-279.6 78.86,-70.3 198.94,-73.7 284.32,-13.7 60.64,42.6 94.92,113.3 96.05,186.7 0.23,15.7 -24.05,15.6 -24.28,0"
         style="fill:#2b292a;fill-opacity:1;fill-rule:nonzero;stroke:none"
         id="path148" /><path
         d="m 7486.5,13978.6 c 32.86,-26.4 65.73,-52.8 98.6,-79.2 12.08,-9.7 29.37,7.4 17.16,17.2 -32.86,26.3 -65.73,52.7 -98.59,79.1 -12.08,9.7 -29.38,-7.3 -17.17,-17.1 v 0"
         style="fill:#2b292a;fill-opacity:1;fill-rule:nonzero;stroke:none"
         id="path150" /><path
         d="m 7693.72,13986.4 c -18.94,37.3 -37.88,74.5 -56.82,111.8 -7.09,14 -28.04,1.7 -20.96,-12.2 18.94,-37.3 37.88,-74.6 56.82,-111.9 7.09,-13.9 28.04,-1.6 20.96,12.3 v 0"
         style="fill:#2b292a;fill-opacity:1;fill-rule:nonzero;stroke:none"
         id="path152" /><path
         d="m 7425.33,13655.9 c 41.65,9.5 83.3,19 124.95,28.5 15.26,3.5 8.78,26.9 -6.46,23.5 -41.65,-9.6 -83.29,-19.1 -124.94,-28.6 -15.26,-3.4 -8.79,-26.9 6.45,-23.4 v 0"
         style="fill:#2b292a;fill-opacity:1;fill-rule:nonzero;stroke:none"
         id="path154" /><path
         d="m 7549.77,13819 c -41.48,9.5 -82.96,19 -124.44,28.4 -15.24,3.5 -21.71,-19.9 -6.45,-23.4 41.48,-9.4 82.95,-18.9 124.43,-28.4 15.25,-3.5 21.72,20 6.46,23.4 v 0"
         style="fill:#2b292a;fill-opacity:1;fill-rule:nonzero;stroke:none"
         id="path156" /><path
         d="m 7778.22,14129.4 c 0,-43.8 0,-87.7 0,-131.6 0,-15.7 24.28,-15.7 24.28,0 0,43.9 0,87.8 0,131.6 0,15.7 -24.28,15.7 -24.28,0 v 0"
         style="fill:#2b292a;fill-opacity:1;fill-rule:nonzero;stroke:none"
         id="path158" /><path
         d="m 7910.92,13974.1 c 17.95,37.3 35.9,74.6 53.86,111.9 6.76,14 -14.18,26.3 -20.97,12.2 -17.95,-37.3 -35.9,-74.5 -53.85,-111.8 -6.76,-14 14.17,-26.4 20.96,-12.3 v 0"
         style="fill:#2b292a;fill-opacity:1;fill-rule:nonzero;stroke:none"
         id="path160" /><path
         d="m 7503.67,13507.6 c 32.86,26.2 65.73,52.4 98.59,78.7 12.25,9.7 -5.06,26.8 -17.16,17.1 -32.87,-26.2 -65.74,-52.4 -98.6,-78.6 -12.24,-9.8 5.06,-26.8 17.17,-17.2 v 0"
         style="fill:#2b292a;fill-opacity:1;fill-rule:nonzero;stroke:none"
         id="path162" /><path
         d="m 8161.84,13679.3 c -41.65,9.5 -83.3,19 -124.95,28.6 -15.24,3.4 -21.71,-20 -6.45,-23.5 41.65,-9.5 83.29,-19 124.94,-28.5 15.24,-3.5 21.72,20 6.46,23.4 v 0"
         style="fill:#2b292a;fill-opacity:1;fill-rule:nonzero;stroke:none"
         id="path164" /><path
         d="m 7973.11,13590.5 c 34.65,-27.6 69.29,-55.2 103.94,-82.9 12.11,-9.6 29.41,7.4 17.17,17.2 -34.65,27.6 -69.29,55.2 -103.94,82.9 -12.1,9.6 -29.4,-7.4 -17.17,-17.2 v 0"
         style="fill:#2b292a;fill-opacity:1;fill-rule:nonzero;stroke:none"
         id="path166" /><path
         d="m 8036.89,13795.5 c 41.65,9.5 83.3,19 124.95,28.5 15.26,3.5 8.78,26.9 -6.46,23.4 -41.65,-9.5 -83.29,-19 -124.94,-28.5 -15.26,-3.5 -8.79,-26.9 6.45,-23.4 v 0"
         style="fill:#2b292a;fill-opacity:1;fill-rule:nonzero;stroke:none"
         id="path168" /><path
         d="m 8077.05,13995.7 c -33.09,-26.4 -66.19,-52.8 -99.29,-79.1 -12.23,-9.8 5.07,-26.9 17.17,-17.2 33.1,26.4 66.19,52.8 99.29,79.2 12.24,9.7 -5.06,26.8 -17.17,17.1 v 0"
         style="fill:#2b292a;fill-opacity:1;fill-rule:nonzero;stroke:none"
         id="path170" /><path
         d="m 7964.78,13417.4 c -18.94,39.3 -37.88,78.6 -56.82,118 -6.79,14.1 -27.72,1.8 -20.97,-12.3 18.94,-39.3 37.88,-78.6 56.82,-118 6.79,-14.1 27.73,-1.7 20.97,12.3 v 0"
         style="fill:#2b292a;fill-opacity:1;fill-rule:nonzero;stroke:none"
         id="path172" /><path
         d="m 7778.22,13504.1 c 0,-43.4 0,-86.8 0,-130.2 0,-15.6 24.28,-15.6 24.28,0 0,43.4 0,86.8 0,130.2 0,15.6 -24.28,15.6 -24.28,0 v 0"
         style="fill:#2b292a;fill-opacity:1;fill-rule:nonzero;stroke:none"
         id="path174" /><path
         d="m 7636.9,13405.1 c 18.94,37.5 37.88,75 56.82,112.5 7.04,13.9 -13.9,26.2 -20.96,12.2 -18.94,-37.4 -37.88,-74.9 -56.82,-112.4 -7.04,-14 13.9,-26.2 20.96,-12.3 v 0"
         style="fill:#2b292a;fill-opacity:1;fill-rule:nonzero;stroke:none"
         id="path176" /><path
         d="M 6596.29,10204.4 H 4475.71 c -9.39,0 -17,-7.6 -17,-16.9 0,-9.4 7.61,-17 17,-17 h 2120.58 c 9.38,0 16.99,7.6 16.99,17 0,9.3 -7.61,16.9 -16.99,16.9"
         style="fill:#000000;fill-opacity:1;fill-rule:nonzero;stroke:none"
         id="path178" /><path
         d="m 4245.14,10204.4 h -2281.6 c -9.39,0 -17,-7.6 -17,-16.9 0,-9.4 7.61,-17 17,-17 h 2281.6 c 9.39,0 16.99,7.6 16.99,17 0,9.3 -7.6,16.9 -16.99,16.9"
         style="fill:#000000;fill-opacity:1;fill-rule:nonzero;stroke:none"
         id="path180" /><path
         d="m 9023.76,10204.4 h -481.19 c -9.39,0 -17,-7.6 -17,-16.9 0,-9.4 7.61,-17 17,-17 h 481.19 c 9.39,0 17,7.6 17,17 0,9.3 -7.61,16.9 -17,16.9"
         style="fill:#000000;fill-opacity:1;fill-rule:nonzero;stroke:none"
         id="path182" /><path
         d="m 8237.74,10204.4 h -933.99 c -9.38,0 -16.99,-7.6 -16.99,-16.9 0,-9.4 7.61,-17 16.99,-17 h 933.99 c 9.39,0 17,7.6 17,17 0,9.3 -7.61,16.9 -17,16.9"
         style="fill:#000000;fill-opacity:1;fill-rule:nonzero;stroke:none"
         id="path184" /><path
         d="m 8067.83,12200 c 3.26,0 6.53,-0.9 9.36,-2.8 l 627.58,-414.3 c 11.12,-7.3 26.14,-4.2 33.48,6.9 7.34,11.1 4.27,26.1 -6.85,33.5 l -648.71,428.2 c -4.17,2.8 -9.07,4.1 -14.18,3.9 -0.45,0 -0.9,0 -1.36,0 -5.12,0.2 -10.01,-1.1 -14.18,-3.9 l -648.7,-428.2 c -11.13,-7.4 -14.2,-22.4 -6.86,-33.5 7.34,-11.1 22.36,-14.2 33.49,-6.9 l 627.57,414.3 c 2.84,1.9 6.1,2.8 9.36,2.8 z m 650.16,-455.1 c -11,0 -22.1,3.2 -31.95,9.7 l -618.21,408.1 -618.21,-408.1 c -26.75,-17.7 -62.9,-10.3 -80.57,16.5 -17.67,26.7 -10.27,62.9 16.49,80.5 l 648.71,428.3 c 9.96,6.6 21.59,9.8 33.59,9.5 11.97,0.4 23.61,-2.9 33.57,-9.5 l 648.71,-428.3 v 0 c 26.77,-17.6 34.17,-53.8 16.5,-80.5 -11.17,-17 -29.73,-26.2 -48.63,-26.2"
         style="fill:#000000;fill-opacity:1;fill-rule:nonzero;stroke:none"
         id="path186" /><path
         d="m 6134.87,11345.6 c -1.83,0 -4.36,-0.4 -6.84,-2 l -465.62,-307.4 c -2.77,-1.8 -4.67,-4.7 -5.35,-8 -0.67,-3.3 -0.04,-6.6 1.79,-9.4 3.81,-5.8 11.61,-7.4 17.39,-3.5 l 450.45,297.3 c 5.68,3.8 13.05,3.8 18.73,0 l 450.46,-297.3 c 2.77,-1.9 6.13,-2.5 9.42,-1.8 3.31,0.6 6.14,2.5 7.97,5.3 3.81,5.8 2.21,13.6 -3.56,17.4 l -465.63,307.4 c -2.72,1.8 -5.49,2.1 -7.35,2 -0.44,0 -0.89,0 -1.35,0 -0.16,0 -0.33,0 -0.51,0 z m 467.78,-366.4 c -9.02,0 -17.83,2.6 -25.5,7.7 l -441.09,291.2 -441.1,-291.2 c -10.34,-6.8 -22.76,-9.2 -34.96,-6.7 -12.2,2.5 -22.69,9.5 -29.52,19.9 -14.13,21.4 -8.21,50.3 13.2,64.5 l 465.63,307.4 c 7.94,5.2 17.18,7.8 26.75,7.6 9.59,0.2 18.8,-2.4 26.74,-7.6 l 465.63,-307.4 c 10.35,-6.9 17.43,-17.3 19.92,-29.5 2.5,-12.2 0.11,-24.7 -6.72,-35 -6.83,-10.4 -17.31,-17.4 -29.51,-19.9 -3.16,-0.7 -6.33,-1 -9.47,-1"
         style="fill:#000000;fill-opacity:1;fill-rule:nonzero;stroke:none"
         id="path188" /><path
         d="m 8653.12,11257.7 h -1175.2 c -9.39,0 -17,7.6 -17,17 v 518.9 c 0,9.4 7.61,17 17,17 9.38,0 16.99,-7.6 16.99,-17 v -501.9 h 1141.22 v 505 c 0,9.3 7.61,17 16.99,17 9.39,0 17,-7.7 17,-17 v -522 c 0,-9.4 -7.61,-17 -17,-17"
         style="fill:#000000;fill-opacity:1;fill-rule:nonzero;stroke:none"
         id="path190" /><path
         d="m 8653.12,10318.5 h -1175.2 c -9.39,0 -17,7.6 -17,17 v 701.8 c 0,9.3 7.61,17 17,17 9.38,0 16.99,-7.7 16.99,-17 v -684.8 h 1141.22 v 688.9 c 0,9.4 7.61,17 16.99,17 9.39,0 17,-7.6 17,-17 v -705.9 c 0,-9.4 -7.61,-17 -17,-17"
         style="fill:#000000;fill-opacity:1;fill-rule:nonzero;stroke:none"
         id="path192" /><path
         d="m 8065.52,12000.2 c -51.44,0 -93.28,-41.8 -93.28,-93.3 0,-51.4 41.84,-93.2 93.28,-93.2 51.43,0 93.28,41.8 93.28,93.2 0,51.5 -41.85,93.3 -93.28,93.3 z m 0,-220.5 c -70.18,0 -127.27,57.1 -127.27,127.2 0,70.2 57.09,127.3 127.27,127.3 70.18,0 127.27,-57.1 127.27,-127.3 0,-70.1 -57.09,-127.2 -127.27,-127.2"
         style="fill:#000000;fill-opacity:1;fill-rule:nonzero;stroke:none"
         id="path194" /><path
         d="m 8065.52,11779.7 c -9.39,0 -17,7.6 -17,17 v 220.5 c 0,9.4 7.61,17 17,17 9.39,0 16.99,-7.6 16.99,-17 v -220.5 c 0,-9.4 -7.6,-17 -16.99,-17"
         style="fill:#000000;fill-opacity:1;fill-rule:nonzero;stroke:none"
         id="path196" /><path
         d="m 8174.95,11889.9 h -219.7 c -9.39,0 -17,7.6 -17,17 0,9.4 7.61,17 17,17 h 219.7 c 9.38,0 16.99,-7.6 16.99,-17 0,-9.4 -7.61,-17 -16.99,-17"
         style="fill:#000000;fill-opacity:1;fill-rule:nonzero;stroke:none"
         id="path198" /><path
         d="m 6137.84,11140.9 c -51.43,0 -93.28,-41.8 -93.28,-93.2 0,-51.5 41.85,-93.3 93.28,-93.3 51.44,0 93.29,41.8 93.29,93.3 0,51.4 -41.85,93.2 -93.29,93.2 z m 0,-220.5 c -70.17,0 -127.27,57.1 -127.27,127.3 0,70.1 57.1,127.2 127.27,127.2 70.18,0 127.27,-57.1 127.27,-127.2 0,-70.2 -57.09,-127.3 -127.27,-127.3"
         style="fill:#000000;fill-opacity:1;fill-rule:nonzero;stroke:none"
         id="path200" /><path
         d="m 6137.84,10920.4 c -9.38,0 -16.99,7.6 -16.99,17 v 220.5 c 0,9.4 7.61,17 16.99,17 9.39,0 17,-7.6 17,-17 v -220.5 c 0,-9.4 -7.61,-17 -17,-17"
         style="fill:#000000;fill-opacity:1;fill-rule:nonzero;stroke:none"
         id="path202" /><path
         d="m 6247.27,11030.7 h -219.7 c -9.39,0 -17,7.6 -17,17 0,9.3 7.61,17 17,17 h 219.7 c 9.39,0 17,-7.7 17,-17 0,-9.4 -7.61,-17 -17,-17"
         style="fill:#000000;fill-opacity:1;fill-rule:nonzero;stroke:none"
         id="path204" /><path
         d="m 7688.75,11467.3 h 164 v 164 h -164 z m 181,-34 h -198 c -9.39,0 -16.99,7.6 -16.99,17 v 198 c 0,9.4 7.6,17 16.99,17 h 198 c 9.38,0 16.99,-7.6 16.99,-17 v -198 c 0,-9.4 -7.61,-17 -16.99,-17"
         style="fill:#000000;fill-opacity:1;fill-rule:nonzero;stroke:none"
         id="path206" /><path
         d="m 8287.04,11467.3 h 164.01 v 164 h -164.01 z m 181,-34 h -197.99 c -9.39,0 -17,7.6 -17,17 v 198 c 0,9.4 7.61,17 17,17 h 197.99 c 9.39,0 17,-7.6 17,-17 v -198 c 0,-9.4 -7.61,-17 -17,-17"
         style="fill:#000000;fill-opacity:1;fill-rule:nonzero;stroke:none"
         id="path208" /><path
         d="m 7412.19,11058.4 h 1306.8 l -74.73,199.3 H 7486.92 Z m 1331.32,-34 H 7387.67 c -5.57,0 -10.79,2.7 -13.97,7.3 -3.17,4.6 -3.9,10.4 -1.94,15.6 l 87.47,233.4 c 2.49,6.6 8.83,11 15.91,11 h 1180.9 c 7.08,0 13.43,-4.4 15.91,-11 l 87.48,-233.4 c 1.95,-5.2 1.23,-11 -1.95,-15.6 -3.17,-4.6 -8.39,-7.3 -13.97,-7.3"
         style="fill:#000000;fill-opacity:1;fill-rule:nonzero;stroke:none"
         id="path210" /><path
         d="m 7690.18,10352.5 h 232.88 v 443.8 h -232.88 z m 249.87,-34 h -266.86 c -9.39,0 -17,7.6 -17,17 v 477.4 c 0,9.4 7.89,17.4 17.27,17.4 h 266.08 c 9.65,0 17.51,-7.9 17.51,-17.6 v -477.2 c 0,-9.4 -7.61,-17 -17,-17"
         style="fill:#000000;fill-opacity:1;fill-rule:nonzero;stroke:none"
         id="path212" /><path
         d="m 8141.83,10664.8 h 311.37 v 224.7 h -311.37 z m 328.36,-34 h -345.35 c -9.39,0 -16.99,7.6 -16.99,17 v 258.7 c 0,9.4 7.6,17 16.99,17 h 345.35 c 9.39,0 17,-7.6 17,-17 v -258.7 c 0,-9.4 -7.61,-17 -17,-17"
         style="fill:#000000;fill-opacity:1;fill-rule:nonzero;stroke:none"
         id="path214" /><path
         d="m 8468.04,10837.9 h -343.2 c -9.39,0 -16.99,7.6 -16.99,17 0,9.4 7.6,17 16.99,17 h 343.2 c 9.39,0 17,-7.6 17,-17 0,-9.4 -7.61,-17 -17,-17"
         style="fill:#000000;fill-opacity:1;fill-rule:nonzero;stroke:none"
         id="path216" /><path
         d="m 7869.75,11583.9 h -198 c -9.39,0 -16.99,7.7 -16.99,17 0,9.4 7.6,17 16.99,17 h 198 c 9.38,0 16.99,-7.6 16.99,-17 0,-9.3 -7.61,-17 -16.99,-17"
         style="fill:#000000;fill-opacity:1;fill-rule:nonzero;stroke:none"
         id="path218" /><path
         d="m 8468.04,11583.9 h -197.99 c -9.39,0 -17,7.7 -17,17 0,9.4 7.61,17 17,17 h 197.99 c 9.39,0 17,-7.6 17,-17 0,-9.3 -7.61,-17 -17,-17"
         style="fill:#000000;fill-opacity:1;fill-rule:nonzero;stroke:none"
         id="path220" /><path
         d="m 4875.5,11006.5 c -1.28,0 -2.46,-0.3 -3.5,-1 l -370.64,-244.7 c -1.93,-1.3 -2.56,-3.1 -2.77,-4.1 -0.2,-1 -0.35,-3 0.92,-4.9 1.28,-2 3.15,-2.6 4.14,-2.8 1,-0.2 2.96,-0.3 4.9,0.9 l 358.56,236.7 c 5.68,3.8 13.04,3.8 18.72,0 l 358.56,-236.7 c 1.93,-1.2 3.89,-1.1 4.9,-0.9 0.99,0.2 2.86,0.8 4.14,2.8 1.27,1.9 1.12,3.9 0.92,4.9 -0.21,1 -0.84,2.8 -2.77,4.1 l -370.64,244.7 c -1.12,0.7 -2.41,1.1 -3.79,1 -0.45,0 -0.91,0 -1.36,0 -0.09,0 -0.19,0 -0.29,0 z m -370.42,-291.6 c -2.74,0 -5.5,0.2 -8.24,0.8 -10.62,2.2 -19.75,8.3 -25.69,17.4 -12.31,18.6 -7.16,43.8 11.49,56.1 l 370.63,244.7 c 6.89,4.5 14.98,6.8 23.2,6.6 8.28,0.3 16.31,-2.1 23.21,-6.6 l 370.62,-244.7 v 0 c 18.65,-12.3 23.8,-37.5 11.49,-56.1 -5.94,-9.1 -15.07,-15.2 -25.69,-17.4 -10.62,-2.2 -21.43,-0.1 -30.44,5.9 l -349.19,230.5 -349.19,-230.5 c -6.68,-4.4 -14.35,-6.7 -22.2,-6.7"
         style="fill:#000000;fill-opacity:1;fill-rule:nonzero;stroke:none"
         id="path222" /><path
         d="m 4877.81,10834.9 c -16.06,0 -29.12,-13 -29.12,-29.1 0,-16.1 13.06,-29.1 29.12,-29.1 16.05,0 29.12,13 29.12,29.1 0,16.1 -13.07,29.1 -29.12,29.1 z m 0,-92.2 c -34.8,0 -63.11,28.3 -63.11,63.1 0,34.8 28.31,63.1 63.11,63.1 34.8,0 63.11,-28.3 63.11,-63.1 0,-34.8 -28.31,-63.1 -63.11,-63.1"
         style="fill:#000000;fill-opacity:1;fill-rule:nonzero;stroke:none"
         id="path224" /><path
         d="m 5205.8,10321.1 h -655.98 c -9.39,0 -17,7.7 -17,17 v 416.3 c 0,9.4 7.61,17 17,17 9.38,0 16.99,-7.6 16.99,-17 v -399.3 h 622 v 399.3 c 0,9.4 7.6,17 16.99,17 9.39,0 17,-7.6 17,-17 v -416.3 c 0,-9.3 -7.61,-17 -17,-17"
         style="fill:#000000;fill-opacity:1;fill-rule:nonzero;stroke:none"
         id="path226" /><path
         d="m 5095.29,10332.2 c -9.39,0 -17,7.6 -17,17 v 308.9 h -403.64 v -308.9 c 0,-9.4 -7.61,-17 -17,-17 -9.38,0 -16.99,7.6 -16.99,17 v 325.9 c 0,9.4 7.61,17 16.99,17 h 437.64 c 9.38,0 16.99,-7.6 16.99,-17 v -325.9 c 0,-9.4 -7.61,-17 -16.99,-17"
         style="fill:#000000;fill-opacity:1;fill-rule:nonzero;stroke:none"
         id="path228" /><path
         d="m 5095.29,10615.9 h -437.64 c -6.7,0 -12.14,5.4 -12.14,12.2 0,6.7 5.44,12.1 12.14,12.1 h 437.64 c 6.7,0 12.14,-5.4 12.14,-12.1 0,-6.8 -5.44,-12.2 -12.14,-12.2"
         style="fill:#000000;fill-opacity:1;fill-rule:nonzero;stroke:none"
         id="path230" /><path
         d="m 5095.29,10566.9 h -437.64 c -6.7,0 -12.14,5.5 -12.14,12.2 0,6.7 5.44,12.1 12.14,12.1 h 437.64 c 6.7,0 12.14,-5.4 12.14,-12.1 0,-6.7 -5.44,-12.2 -12.14,-12.2"
         style="fill:#000000;fill-opacity:1;fill-rule:nonzero;stroke:none"
         id="path232" /><path
         d="m 5095.29,10518 h -437.64 c -6.7,0 -12.14,5.4 -12.14,12.1 0,6.7 5.44,12.2 12.14,12.2 h 437.64 c 6.7,0 12.14,-5.5 12.14,-12.2 0,-6.7 -5.44,-12.1 -12.14,-12.1"
         style="fill:#000000;fill-opacity:1;fill-rule:nonzero;stroke:none"
         id="path234" /><path
         d="m 5095.29,10469.1 h -437.64 c -6.7,0 -12.14,5.4 -12.14,12.1 0,6.7 5.44,12.1 12.14,12.1 h 437.64 c 6.7,0 12.14,-5.4 12.14,-12.1 0,-6.7 -5.44,-12.1 -12.14,-12.1"
         style="fill:#000000;fill-opacity:1;fill-rule:nonzero;stroke:none"
         id="path236" /><path
         d="m 5095.29,10420.1 h -437.64 c -6.7,0 -12.14,5.4 -12.14,12.1 0,6.7 5.44,12.2 12.14,12.2 h 437.64 c 6.7,0 12.14,-5.5 12.14,-12.2 0,-6.7 -5.44,-12.1 -12.14,-12.1"
         style="fill:#000000;fill-opacity:1;fill-rule:nonzero;stroke:none"
         id="path238" /><path
         d="m 5095.29,10371.1 h -437.64 c -6.7,0 -12.14,5.5 -12.14,12.2 0,6.7 5.44,12.1 12.14,12.1 h 437.64 c 6.7,0 12.14,-5.4 12.14,-12.1 0,-6.7 -5.44,-12.2 -12.14,-12.2"
         style="fill:#000000;fill-opacity:1;fill-rule:nonzero;stroke:none"
         id="path240" /><path
         d="m 8909.56,10304 c -9.39,0 -17,7.7 -17,17 v 814.5 c 0,9.4 7.61,17 17,17 9.39,0 16.99,-7.6 16.99,-17 V 10321 c 0,-9.3 -7.6,-17 -16.99,-17"
         style="fill:#000000;fill-opacity:1;fill-rule:nonzero;stroke:none"
         id="path242" /><path
         d="m 8909.56,10967.2 c -4.35,0 -8.7,1.6 -12.02,4.9 l -66.69,66.7 c -6.64,6.7 -6.64,17.4 -0.01,24.1 6.64,6.6 17.4,6.6 24.04,0 l 66.7,-66.7 c 6.63,-6.6 6.63,-17.4 0,-24 -3.32,-3.4 -7.67,-5 -12.02,-5"
         style="fill:#000000;fill-opacity:1;fill-rule:nonzero;stroke:none"
         id="path244" /><path
         d="m 8909.54,10842.8 c -3.34,0 -6.72,0.9 -9.68,3 -7.71,5.4 -9.61,15.9 -4.26,23.6 l 73.11,105.2 c 5.36,7.7 15.95,9.6 23.66,4.3 7.71,-5.4 9.61,-16 4.25,-23.7 l -73.11,-105.1 c -3.3,-4.8 -8.59,-7.3 -13.97,-7.3"
         style="fill:#000000;fill-opacity:1;fill-rule:nonzero;stroke:none"
         id="path246" /><path
         d="m 8911.48,11442.8 c -17.7,-13.1 -53.32,-104.4 -82.97,-279.9 -27.35,-162 -35.4,-311.6 -20.01,-372.2 24.57,-96.8 86.27,-125.9 103,-132.1 17.07,6.3 78.34,35.1 102.96,132.1 15.38,60.6 7.34,210.2 -20.01,372.2 -29.65,175.5 -65.27,266.8 -82.97,279.9 z m 0,-819.1 c -1.43,0 -2.86,0.2 -4.26,0.6 -4,1 -98.36,26.8 -131.67,158.1 -33.89,133.5 36.63,588.5 104.81,676.2 7,9 14.45,14.9 22.25,17.6 2.27,1.1 4.83,1.8 7.53,1.8 h 2.68 c 2.7,0 5.26,-0.7 7.53,-1.8 7.8,-2.7 15.25,-8.6 22.25,-17.6 68.18,-87.7 138.7,-542.7 104.81,-676.2 -33.31,-131.3 -127.67,-157.1 -131.67,-158.1 -1.4,-0.4 -2.83,-0.6 -4.26,-0.6"
         style="fill:#000000;fill-opacity:1;fill-rule:nonzero;stroke:none"
         id="path248" /><path
         d="m 4179.87,10281.6 c -9.38,0 -16.99,7.6 -16.99,17 v 810.6 c 0,9.4 7.61,17 16.99,17 9.39,0 17,-7.6 17,-17 v -810.6 c 0,-9.4 -7.61,-17 -17,-17"
         style="fill:#000000;fill-opacity:1;fill-rule:nonzero;stroke:none"
         id="path250" /><path
         d="m 4179.87,10941.6 c -4.35,0 -8.69,1.6 -12.01,5 l -66.38,66.3 c -6.64,6.7 -6.64,17.4 -0.01,24 6.64,6.7 17.4,6.7 24.04,0 l 66.38,-66.3 c 6.64,-6.7 6.64,-17.4 0,-24 -3.32,-3.4 -7.67,-5 -12.02,-5"
         style="fill:#000000;fill-opacity:1;fill-rule:nonzero;stroke:none"
         id="path252" /><path
         d="m 4179.86,10817.8 c -3.35,0 -6.73,0.9 -9.69,3 -7.7,5.4 -9.61,15.9 -4.25,23.6 l 72.76,104.7 c 5.36,7.7 15.95,9.6 23.66,4.3 7.7,-5.4 9.61,-16 4.25,-23.7 l -72.76,-104.6 c -3.31,-4.8 -8.6,-7.3 -13.97,-7.3"
         style="fill:#000000;fill-opacity:1;fill-rule:nonzero;stroke:none"
         id="path254" /><path
         d="m 4181.78,11414.8 c -14.83,-11.9 -50.55,-89.2 -82.51,-278.5 -27.21,-161.2 -35.2,-309.9 -19.9,-370.2 24.43,-96.3 85.76,-125.3 102.43,-131.5 17.02,6.3 77.91,35 102.4,131.5 15.3,60.3 7.31,209 -19.9,370.2 -31.96,189.3 -67.68,266.6 -82.52,278.5 z m 0,-815 c -1.43,0 -2.86,0.1 -4.25,0.5 -3.99,1 -97.94,26.7 -131.11,157.4 -33.74,132.9 36.46,585.9 104.33,673.1 6.97,9 14.4,14.8 22.18,17.6 2.27,1.1 4.82,1.7 7.52,1.7 h 2.67 c 2.7,0 5.25,-0.6 7.52,-1.7 7.78,-2.8 15.2,-8.6 22.18,-17.6 67.86,-87.2 138.06,-540.2 104.32,-673.1 -33.16,-130.7 -127.12,-156.4 -131.1,-157.4 -1.4,-0.4 -2.83,-0.5 -4.26,-0.5"
         style="fill:#000000;fill-opacity:1;fill-rule:nonzero;stroke:none"
         id="path256" /><path
         d="m 6507.08,10323.2 h -744.55 c -9.39,0 -17,7.7 -17,17 v 705.9 c 0,9.4 7.61,17 17,17 9.39,0 16.99,-7.6 16.99,-17 v -688.9 h 710.57 v 688.9 c 0,9.4 7.61,17 16.99,17 9.39,0 17,-7.6 17,-17 v -705.9 c 0,-9.3 -7.61,-17 -17,-17"
         style="fill:#000000;fill-opacity:1;fill-rule:nonzero;stroke:none"
         id="path258" /><path
         d="m 7074.15,11038.4 h -455.08 c -9.38,0 -16.99,7.6 -16.99,17 0,9.4 7.61,17 16.99,17 h 432.17 l -143.4,472.8 h -1540 l -143.39,-472.8 h 428.59 c 9.39,0 17,-7.6 17,-17 0,-9.4 -7.61,-17 -17,-17 h -451.5 c -5.39,0 -10.45,2.5 -13.65,6.8 -3.21,4.4 -4.18,10 -2.62,15.1 l 153.7,506.8 c 2.18,7.2 8.78,12.1 16.27,12.1 h 1565.21 c 7.49,0 14.09,-4.9 16.27,-12.1 l 153.7,-506.8 c 1.56,-5.1 0.59,-10.7 -2.62,-15.1 -3.2,-4.3 -8.27,-6.8 -13.65,-6.8"
         style="fill:#000000;fill-opacity:1;fill-rule:nonzero;stroke:none"
         id="path260" /><path
         d="M 6998.79,10325.7 H 5268.66 c -8.04,0 -14.57,6.5 -14.57,14.5 v 715.2 c 0,8 6.53,14.5 14.57,14.5 8.05,0 14.57,-6.5 14.57,-14.5 v -700.6 h 1701.05 l 3.03,700.6 c 0.03,8 6.55,14.5 14.56,14.5 0.03,0 0.05,0 0.07,0 8.04,0 14.54,-6.5 14.5,-14.6 l -3.09,-715.1 c -0.03,-8 -6.54,-14.5 -14.56,-14.5"
         style="fill:#000000;fill-opacity:1;fill-rule:nonzero;stroke:none"
         id="path262" /><path
         d="m 6017.07,10357.2 h 235.37 v 415.9 h -235.37 z m 252.36,-34 h -269.36 c -9.38,0 -16.99,7.7 -16.99,17 v 449.9 c 0,9.4 7.61,17 16.99,17 h 269.36 c 9.39,0 17,-7.6 17,-17 v -449.9 c 0,-9.3 -7.61,-17 -17,-17"
         style="fill:#000000;fill-opacity:1;fill-rule:nonzero;stroke:none"
         id="path264" /><path
         d="m 5434.14,10619.4 h 164.15 v 261.8 h -164.15 z m 181.14,-34 h -198.14 c -9.38,0 -16.99,7.6 -16.99,17 v 295.8 c 0,9.4 7.61,17 16.99,17 h 198.14 c 9.39,0 17,-7.6 17,-17 v -295.8 c 0,-9.4 -7.61,-17 -17,-17"
         style="fill:#000000;fill-opacity:1;fill-rule:nonzero;stroke:none"
         id="path266" /><path
         d="m 6669.32,10619.4 h 164.15 v 261.8 h -164.15 z m 181.15,-34 h -198.14 c -9.39,0 -17,7.6 -17,17 v 295.8 c 0,9.4 7.61,17 17,17 h 198.14 c 9.38,0 16.99,-7.6 16.99,-17 v -295.8 c 0,-9.4 -7.61,-17 -16.99,-17"
         style="fill:#000000;fill-opacity:1;fill-rule:nonzero;stroke:none"
         id="path268" /><path
         d="m 7581.86,11943.9 c -9.39,0 -17,7.6 -17,17 v 244.2 c 0,9.4 7.61,17 17,17 h 165.63 c 9.38,0 16.99,-7.6 16.99,-17 v -134.9 c 0,-9.4 -7.61,-17 -16.99,-17 -9.39,0 -17,7.6 -17,17 v 117.9 h -131.64 v -227.2 c 0,-9.4 -7.61,-17 -16.99,-17"
         style="fill:#000000;fill-opacity:1;fill-rule:nonzero;stroke:none"
         id="path270" /><path
         d="m 7588.4,12255.4 c -9,0 -16.31,-7.3 -16.31,-16.3 v -0.7 c 0,-9 7.31,-16.3 16.31,-16.3 h 149.05 c 8.99,0 16.3,7.3 16.3,16.3 v 0.7 c 0,9 -7.31,16.3 -16.3,16.3 z m 149.05,-67.3 H 7588.4 c -27.74,0 -50.3,22.6 -50.3,50.3 v 0.7 c 0,27.8 22.56,50.3 50.3,50.3 h 149.05 c 27.73,0 50.29,-22.5 50.29,-50.3 v -0.7 c 0,-27.7 -22.56,-50.3 -50.29,-50.3"
         style="fill:#000000;fill-opacity:1;fill-rule:nonzero;stroke:none"
         id="path272" /><path
         d="m 7037.88,10357.2 h 348.42 v 323.6 h -348.42 z m 365.41,-34 h -382.41 c -9.38,0 -16.99,7.7 -16.99,17 v 357.6 c 0,9.4 7.61,17 16.99,17 h 382.41 c 9.39,0 16.99,-7.6 16.99,-17 v -357.6 c 0,-9.3 -7.6,-17 -16.99,-17"
         style="fill:#000000;fill-opacity:1;fill-rule:nonzero;stroke:none"
         id="path274" /><path
         d="m 7069.26,10323.2 c -9.39,0 -16.99,7.7 -16.99,17 v 357.6 c 0,9.4 7.6,17 16.99,17 9.39,0 17,-7.6 17,-17 v -357.6 c 0,-9.3 -7.61,-17 -17,-17"
         style="fill:#000000;fill-opacity:1;fill-rule:nonzero;stroke:none"
         id="path276" /><path
         d="m 7125.7,10323.2 c -9.39,0 -17,7.7 -17,17 v 357.6 c 0,9.4 7.61,17 17,17 9.38,0 16.99,-7.6 16.99,-17 v -357.6 c 0,-9.3 -7.61,-17 -16.99,-17"
         style="fill:#000000;fill-opacity:1;fill-rule:nonzero;stroke:none"
         id="path278" /><path
         d="m 7182.14,10323.2 c -9.39,0 -17,7.7 -17,17 v 357.6 c 0,9.4 7.61,17 17,17 9.38,0 16.99,-7.6 16.99,-17 v -357.6 c 0,-9.3 -7.61,-17 -16.99,-17"
         style="fill:#000000;fill-opacity:1;fill-rule:nonzero;stroke:none"
         id="path280" /><path
         d="m 7238.57,10323.2 c -9.39,0 -16.99,7.7 -16.99,17 v 357.6 c 0,9.4 7.6,17 16.99,17 9.39,0 17,-7.6 17,-17 v -357.6 c 0,-9.3 -7.61,-17 -17,-17"
         style="fill:#000000;fill-opacity:1;fill-rule:nonzero;stroke:none"
         id="path282" /><path
         d="m 7295.01,10323.2 c -9.39,0 -17,7.7 -17,17 v 357.6 c 0,9.4 7.61,17 17,17 9.38,0 16.99,-7.6 16.99,-17 v -357.6 c 0,-9.3 -7.61,-17 -16.99,-17"
         style="fill:#000000;fill-opacity:1;fill-rule:nonzero;stroke:none"
         id="path284" /><path
         d="m 7351.44,10323.2 c -9.39,0 -16.99,7.7 -16.99,17 v 357.6 c 0,9.4 7.6,17 16.99,17 9.39,0 17,-7.6 17,-17 v -357.6 c 0,-9.3 -7.61,-17 -17,-17"
         style="fill:#000000;fill-opacity:1;fill-rule:nonzero;stroke:none"
         id="path286" /><path
         d="m 4370.16,10170.5 c -9.39,0 -17,7.6 -17,17 v 394.9 c 0,9.4 7.61,17 17,17 9.38,0 16.99,-7.6 16.99,-17 v -394.9 c 0,-9.4 -7.61,-17 -16.99,-17"
         style="fill:#000000;fill-opacity:1;fill-rule:nonzero;stroke:none"
         id="path288" /><path
         d="m 4370.16,10493.4 c -4.34,0 -8.67,1.6 -11.99,4.9 l -38.54,38.3 c -6.65,6.7 -6.69,17.4 -0.07,24.1 6.62,6.6 17.38,6.7 24.03,0.1 l 38.55,-38.4 c 6.65,-6.6 6.69,-17.3 0.07,-24 -3.32,-3.3 -7.69,-5 -12.05,-5"
         style="fill:#000000;fill-opacity:1;fill-rule:nonzero;stroke:none"
         id="path290" /><path
         d="m 4370.14,10424.9 c -3.26,0 -6.56,0.9 -9.47,2.9 -7.79,5.2 -9.86,15.8 -4.61,23.5 l 46.13,68.6 c 5.24,7.8 15.8,9.8 23.59,4.6 7.79,-5.2 9.85,-15.8 4.61,-23.6 l -46.14,-68.5 c -3.28,-4.9 -8.64,-7.5 -14.11,-7.5"
         style="fill:#000000;fill-opacity:1;fill-rule:nonzero;stroke:none"
         id="path292" /><path
         d="m 4370.16,10652.2 c -67.62,0 -122.62,-55 -122.62,-122.7 0,-67.6 55,-122.6 122.62,-122.6 67.61,0 122.61,55 122.61,122.6 0,67.7 -55,122.7 -122.61,122.7 z m 0,-279.3 c -86.36,0 -156.62,70.3 -156.62,156.6 0,86.4 70.26,156.7 156.62,156.7 86.35,0 156.6,-70.3 156.6,-156.7 0,-86.3 -70.25,-156.6 -156.6,-156.6"
         style="fill:#000000;fill-opacity:1;fill-rule:nonzero;stroke:none"
         id="path294" /><path
         d="m 2724.53,11893.4 c -11.12,-7.3 -14.2,-22.3 -6.85,-33.5 7.34,-11.1 22.36,-14.2 33.48,-6.8 l 627.57,414.3 c 5.68,3.7 13.05,3.7 18.73,0 l 627.57,-414.3 c 11.12,-7.4 26.14,-4.3 33.49,6.8 7.34,11.2 4.26,26.2 -6.86,33.5 l -648.7,428.3 c -4.18,2.7 -9.08,4.1 -14.19,3.9 -0.45,0 -0.9,0 -1.35,0 -5.12,0.2 -10.01,-1.2 -14.18,-3.9 z m 1313.73,-78.3 c -11,0 -22.11,3.1 -31.96,9.6 l -618.2,408.2 -618.21,-408.2 c -26.76,-17.6 -62.91,-10.3 -80.58,16.5 -17.67,26.8 -10.27,62.9 16.49,80.6 v 0 l 648.71,428.3 c 9.97,6.5 21.55,9.8 33.58,9.5 12.03,0.3 23.63,-3 33.59,-9.5 l 648.71,-428.3 c 26.76,-17.7 34.16,-53.8 16.49,-80.6 -11.17,-16.9 -29.73,-26.1 -48.62,-26.1"
         style="fill:#000000;fill-opacity:1;fill-rule:nonzero;stroke:none"
         id="path296" /><path
         d="M 3978.01,10315 H 2802.8 c -9.38,0 -16.99,7.6 -16.99,17 v 1534.8 c 0,9.4 7.61,17 16.99,17 9.39,0 17,-7.6 17,-17 V 10349 h 1141.22 v 1508.8 c 0,9.4 7.61,17 16.99,17 9.39,0 17,-7.6 17,-17 V 10332 c 0,-9.4 -7.61,-17 -17,-17"
         style="fill:#000000;fill-opacity:1;fill-rule:nonzero;stroke:none"
         id="path298" /><path
         d="m 3390.41,12070.4 c -51.44,0 -93.28,-41.9 -93.28,-93.3 0,-51.4 41.84,-93.3 93.28,-93.3 51.43,0 93.28,41.9 93.28,93.3 0,51.4 -41.85,93.3 -93.28,93.3 z m 0,-220.6 c -70.18,0 -127.27,57.1 -127.27,127.3 0,70.2 57.09,127.3 127.27,127.3 70.17,0 127.27,-57.1 127.27,-127.3 0,-70.2 -57.1,-127.3 -127.27,-127.3"
         style="fill:#000000;fill-opacity:1;fill-rule:nonzero;stroke:none"
         id="path300" /><path
         d="m 3390.41,11849.8 c -9.39,0 -17,7.6 -17,17 v 220.6 c 0,9.4 7.61,17 17,17 9.38,0 16.99,-7.6 16.99,-17 v -220.6 c 0,-9.4 -7.61,-17 -16.99,-17"
         style="fill:#000000;fill-opacity:1;fill-rule:nonzero;stroke:none"
         id="path302" /><path
         d="m 3500.68,11960.1 h -219.7 c -9.39,0 -17,7.6 -17,17 0,9.4 7.61,17 17,17 h 219.7 c 9.39,0 17,-7.6 17,-17 0,-9.4 -7.61,-17 -17,-17"
         style="fill:#000000;fill-opacity:1;fill-rule:nonzero;stroke:none"
         id="path304" /><path
         d="m 3590.53,11279.6 h 186.38 v 335.4 h -186.38 z m 203.38,-34 h -220.38 c -9.38,0 -16.99,7.6 -16.99,17 v 369.4 c 0,9.4 7.61,17 16.99,17 h 220.38 c 9.38,0 16.99,-7.6 16.99,-17 v -369.4 c 0,-9.4 -7.61,-17 -16.99,-17"
         style="fill:#000000;fill-opacity:1;fill-rule:nonzero;stroke:none"
         id="path306" /><path
         d="m 3793.91,11436.5 h -220.38 c -9.38,0 -16.99,7.6 -16.99,17 0,9.4 7.61,17 16.99,17 h 220.38 c 9.38,0 16.99,-7.6 16.99,-17 0,-9.4 -7.61,-17 -16.99,-17"
         style="fill:#000000;fill-opacity:1;fill-rule:nonzero;stroke:none"
         id="path308" /><path
         d="m 3297.22,11279.6 h 186.38 v 335.4 h -186.38 z m 203.37,-34 h -220.37 c -9.39,0 -16.99,7.6 -16.99,17 v 369.4 c 0,9.4 7.6,17 16.99,17 h 220.37 c 9.39,0 17,-7.6 17,-17 v -369.4 c 0,-9.4 -7.61,-17 -17,-17"
         style="fill:#000000;fill-opacity:1;fill-rule:nonzero;stroke:none"
         id="path310" /><path
         d="m 3500.59,11436.5 h -220.37 c -9.39,0 -16.99,7.6 -16.99,17 0,9.4 7.6,17 16.99,17 h 220.37 c 9.39,0 17,-7.6 17,-17 0,-9.4 -7.61,-17 -17,-17"
         style="fill:#000000;fill-opacity:1;fill-rule:nonzero;stroke:none"
         id="path312" /><path
         d="m 3585.87,10715.1 h 186.39 v 335.4 h -186.39 z m 203.38,-34 h -220.37 c -9.39,0 -17,7.6 -17,17 v 369.4 c 0,9.4 7.61,17 17,17 h 220.37 c 9.39,0 17,-7.6 17,-17 v -369.4 c 0,-9.4 -7.61,-17 -17,-17"
         style="fill:#000000;fill-opacity:1;fill-rule:nonzero;stroke:none"
         id="path314" /><path
         d="m 3789.25,10872 h -220.37 c -9.39,0 -17,7.6 -17,17 0,9.4 7.61,17 17,17 h 220.37 c 9.39,0 17,-7.6 17,-17 0,-9.4 -7.61,-17 -17,-17"
         style="fill:#000000;fill-opacity:1;fill-rule:nonzero;stroke:none"
         id="path316" /><path
         d="m 3292.56,10715.1 h 186.38 v 335.4 h -186.38 z m 203.38,-34 h -220.37 c -9.39,0 -17,7.6 -17,17 v 369.4 c 0,9.4 7.61,17 17,17 h 220.37 c 9.38,0 16.99,-7.6 16.99,-17 v -369.4 c 0,-9.4 -7.61,-17 -16.99,-17"
         style="fill:#000000;fill-opacity:1;fill-rule:nonzero;stroke:none"
         id="path318" /><path
         d="m 3495.94,10872 h -220.37 c -9.39,0 -17,7.6 -17,17 0,9.4 7.61,17 17,17 h 220.37 c 9.38,0 16.99,-7.6 16.99,-17 0,-9.4 -7.61,-17 -16.99,-17"
         style="fill:#000000;fill-opacity:1;fill-rule:nonzero;stroke:none"
         id="path320" /><path
         d="m 3006.23,11279.6 h 186.38 v 335.4 h -186.38 z m 203.38,-34 h -220.37 c -9.39,0 -17,7.6 -17,17 v 369.4 c 0,9.4 7.61,17 17,17 h 220.37 c 9.39,0 16.99,-7.6 16.99,-17 v -369.4 c 0,-9.4 -7.6,-17 -16.99,-17"
         style="fill:#000000;fill-opacity:1;fill-rule:nonzero;stroke:none"
         id="path322" /><path
         d="m 3209.61,11436.5 h -220.37 c -9.39,0 -17,7.6 -17,17 0,9.4 7.61,17 17,17 h 220.37 c 9.39,0 16.99,-7.6 16.99,-17 0,-9.4 -7.6,-17 -16.99,-17"
         style="fill:#000000;fill-opacity:1;fill-rule:nonzero;stroke:none"
         id="path324" /><path
         d="m 3001.58,10715.1 h 186.38 v 335.4 h -186.38 z m 203.37,-34 h -220.37 c -9.39,0 -16.99,7.6 -16.99,17 v 369.4 c 0,9.4 7.6,17 16.99,17 h 220.37 c 9.39,0 17,-7.6 17,-17 v -369.4 c 0,-9.4 -7.61,-17 -17,-17"
         style="fill:#000000;fill-opacity:1;fill-rule:nonzero;stroke:none"
         id="path326" /><path
         d="m 3204.95,10872 h -220.37 c -9.39,0 -16.99,7.6 -16.99,17 0,9.4 7.6,17 16.99,17 h 220.37 c 9.39,0 17,-7.6 17,-17 0,-9.4 -7.61,-17 -17,-17"
         style="fill:#000000;fill-opacity:1;fill-rule:nonzero;stroke:none"
         id="path328" /><path
         d="m 2802.8,11757.8 h -854.9 c -6.65,0 -12.69,3.8 -15.46,9.9 -2.76,6 -1.75,13.1 2.59,18.2 l 443.38,513.6 c 3.23,3.8 7.92,5.9 12.86,5.9 h 900.71 c 9.38,0 16.99,-7.6 16.99,-17 0,-9.4 -7.61,-17 -16.99,-17 h -892.92 l -414.05,-479.7 h 817.79 c 9.39,0 17,-7.6 17,-17 0,-9.3 -7.61,-16.9 -17,-16.9"
         style="fill:#000000;fill-opacity:1;fill-rule:nonzero;stroke:none"
         id="path330" /><path
         d="m 2802.8,10315 h -814.38 c -9.39,0 -17,7.6 -17,17 v 1442.7 c 0,9.4 7.61,17 17,17 9.38,0 16.99,-7.6 16.99,-17 V 10349 h 797.39 c 9.39,0 17,-7.6 17,-17 0,-9.4 -7.61,-17 -17,-17"
         style="fill:#000000;fill-opacity:1;fill-rule:nonzero;stroke:none"
         id="path332" /><path
         d="m 2232.37,10349 h 323.01 v 560.7 h -323.01 z m 340.01,-34 h -357.01 c -9.38,0 -16.99,7.6 -16.99,17 v 594.7 c 0,9.4 7.61,17 16.99,17 h 357.01 c 9.39,0 16.99,-7.6 16.99,-17 V 10332 c 0,-9.4 -7.6,-17 -16.99,-17"
         style="fill:#000000;fill-opacity:1;fill-rule:nonzero;stroke:none"
         id="path334" /><path
         d="m 2150.89,11408.1 h 496.77 v 206.9 h -496.77 z m 513.76,-34 H 2133.9 c -9.39,0 -17,7.6 -17,17 v 240.9 c 0,9.4 7.61,17 17,17 h 530.75 c 9.39,0 17,-7.6 17,-17 v -240.9 c 0,-9.4 -7.61,-17 -17,-17"
         style="fill:#000000;fill-opacity:1;fill-rule:nonzero;stroke:none"
         id="path336" /><path
         d="M 2664.65,11569.3 H 2133.9 c -9.39,0 -17,7.6 -17,17 0,9.4 7.61,17 17,17 h 530.75 c 9.39,0 17,-7.6 17,-17 0,-9.4 -7.61,-17 -17,-17"
         style="fill:#000000;fill-opacity:1;fill-rule:nonzero;stroke:none"
         id="path338" /><path
         d="m 2399.27,11374.1 c -9.38,0 -16.99,7.6 -16.99,17 v 191.4 c 0,9.4 7.61,17 16.99,17 9.39,0 17,-7.6 17,-17 v -191.4 c 0,-9.4 -7.61,-17 -17,-17"
         style="fill:#000000;fill-opacity:1;fill-rule:nonzero;stroke:none"
         id="path340" /></g></g></svg>
